<svg width="219" height="254" viewBox="0 0 219 254" fill="none" xmlns="http://www.w3.org/2000/svg">
<g clip-path="url(#clip0)">
<path d="M27.6733 87.6085C40.9822 73.8191 52.9143 50.8368 90.5463 40.7246C128.178 30.6124 173.153 31.5317 192.428 63.7069C211.703 95.8821 184.167 145.524 212.162 182.755C240.157 219.986 176.825 277.902 122.212 243.428C80.3581 216.999 -3.53374 243.015 0.137672 149.661C1.05553 126.219 14.3644 101.398 27.6733 87.6085Z" fill="white"/>
<path d="M24.8281 139.962L162.782 130.585C162.782 130.585 183.433 141.157 183.892 154.027C184.351 166.897 169.895 183.215 170.354 198.383C170.813 213.551 183.663 217.688 183.663 217.688C183.663 217.688 177.375 228.72 167.6 224.583C157.825 220.446 146.49 216.769 136.393 216.769C135.384 216.769 137.495 220.308 135.934 220.446C120.973 221.687 80.1288 232.397 80.1288 232.397L24.8281 139.962Z" fill="#03A9F4"/>
<path d="M23.8185 139.456C23.8185 139.456 20.3765 145.064 19.0916 161.014C17.9901 174.665 12.2076 232.581 15.6496 239.475C19.0916 246.37 79.7617 231.707 85.8195 230.42C91.8774 229.133 102.203 225.732 106.058 224.399C118.541 220.078 111.657 203.255 113.814 195.947C115.971 188.638 118.541 181.284 113.814 178.71C109.087 176.136 105.645 190.339 100.459 199.394C95.2734 208.449 102.616 212.31 104.314 202.841C106.058 193.373 97.4304 181.284 97.4304 181.284C94.4015 175.676 95.2734 168.368 94.4015 162.301C93.5295 156.279 88.3895 154.992 87.1045 170.942" fill="#03A9F4"/>
<path d="M23.8185 139.456C23.8185 139.456 20.3765 145.064 19.0916 161.014C17.9901 174.665 12.2076 232.581 15.6496 239.475C19.0916 246.37 79.7617 231.707 85.8195 230.42C91.8774 229.133 102.203 225.732 106.058 224.399C118.541 220.078 111.657 203.255 113.814 195.947C115.971 188.638 118.541 181.284 113.814 178.71C109.087 176.136 105.645 190.339 100.459 199.394C95.2734 208.449 102.616 212.31 104.314 202.841C106.058 193.373 97.4304 181.284 97.4304 181.284C94.4015 175.676 95.2734 168.368 94.4015 162.301C93.5295 156.279 88.3895 154.992 87.1045 170.942" stroke="black" stroke-width="3" stroke-miterlimit="10"/>
<path d="M86.3242 82.3684C86.3242 82.3684 86.0489 108.798 79.2567 115.739C72.4646 122.633 55.1172 124.518 37.2649 131.045C25.1951 135.457 23.8643 139.594 23.8643 139.594L160.074 130.493C160.074 130.493 158.835 126.402 151.538 124.38C145.205 122.633 112.162 117.347 112.162 117.347L115.007 104.339" fill="white"/>
<path d="M86.3242 82.3684C86.3242 82.3684 86.0489 108.798 79.2567 115.739C72.4646 122.633 55.1172 124.518 37.2649 131.045C25.1951 135.457 23.8643 139.594 23.8643 139.594L160.074 130.493C160.074 130.493 158.835 126.402 151.538 124.38C145.205 122.633 112.162 117.347 112.162 117.347L115.007 104.339" stroke="black" stroke-width="3" stroke-miterlimit="10" stroke-linecap="round" stroke-linejoin="round"/>
<path d="M79.5781 78.6913C85.94 78.6913 91.0972 73.5259 91.0972 67.1542C91.0972 60.7824 85.94 55.6171 79.5781 55.6171C73.2163 55.6171 68.0591 60.7824 68.0591 67.1542C68.0591 73.5259 73.2163 78.6913 79.5781 78.6913Z" fill="black"/>
<path d="M85.7278 82.7821C89.1241 82.7821 91.8774 80.0245 91.8774 76.6229C91.8774 73.2212 89.1241 70.4636 85.7278 70.4636C82.3314 70.4636 79.5781 73.2212 79.5781 76.6229C79.5781 80.0245 82.3314 82.7821 85.7278 82.7821Z" fill="black"/>
<path d="M91.9692 92.6185C97.3845 98.6398 109.087 105.535 120.285 103.834C130.978 102.179 135.521 79.1968 136.715 70.8773C138.367 59.3402 137.541 37.0933 137.541 37.0933L112.896 19.8107C112.896 19.8107 72.6025 39.5754 73.4285 40.4028C74.2546 41.2301 80.8173 49.4578 80.8173 49.4578C80.8173 49.4578 81.4139 68.0734 86.4621 82.3684" fill="white"/>
<path d="M91.9692 92.6185C97.3845 98.6398 109.087 105.535 120.285 103.834C130.978 102.179 135.521 79.1968 136.715 70.8773C138.367 59.3402 137.541 37.0933 137.541 37.0933L112.896 19.8107C112.896 19.8107 72.6025 39.5754 73.4285 40.4028C74.2546 41.2301 80.8173 49.4578 80.8173 49.4578C80.8173 49.4578 81.4139 68.0734 86.4621 82.3684" stroke="black" stroke-width="3" stroke-miterlimit="10" stroke-linecap="round"/>
<path d="M126.297 61.3626C130.152 58.7427 135.567 58.5588 139.606 60.9949" stroke="black" stroke-width="3" stroke-miterlimit="10" stroke-linecap="round"/>
<path d="M97.4761 61.0409C101.331 58.4209 106.746 58.237 110.785 60.6731" stroke="black" stroke-width="3" stroke-miterlimit="10" stroke-linecap="round"/>
<path d="M111.29 87.5165C113.585 88.8954 116.338 89.5849 119 89.401" stroke="black" stroke-width="3" stroke-miterlimit="10" stroke-linecap="round"/>
<path d="M132.171 67.9355C133.084 67.9355 133.823 67.1947 133.823 66.2808C133.823 65.3669 133.084 64.6261 132.171 64.6261C131.259 64.6261 130.519 65.3669 130.519 66.2808C130.519 67.1947 131.259 67.9355 132.171 67.9355Z" fill="black"/>
<path d="M105.049 67.9355C105.961 67.9355 106.701 67.1947 106.701 66.2808C106.701 65.3669 105.961 64.6261 105.049 64.6261C104.136 64.6261 103.396 65.3669 103.396 66.2808C103.396 67.1947 104.136 67.9355 105.049 67.9355Z" fill="black"/>
<path d="M114.089 42.8389C125.9 42.8389 135.475 33.2491 135.475 21.4195C135.475 9.58982 125.9 0 114.089 0C102.278 0 92.7031 9.58982 92.7031 21.4195C92.7031 33.2491 102.278 42.8389 114.089 42.8389Z" fill="black"/>
<path d="M138.366 49.4119C146.325 49.4119 152.777 42.9501 152.777 34.979C152.777 27.008 146.325 20.5461 138.366 20.5461C130.408 20.5461 123.956 27.008 123.956 34.979C123.956 42.9501 130.408 49.4119 138.366 49.4119Z" fill="black"/>
<path d="M72.1432 60.5813C82.1295 60.5813 90.225 52.4731 90.225 42.4712C90.225 32.4693 82.1295 24.3612 72.1432 24.3612C62.157 24.3612 54.0615 32.4693 54.0615 42.4712C54.0615 52.4731 62.157 60.5813 72.1432 60.5813Z" fill="black"/>
<path d="M89.4448 41.6439C95.8067 41.6439 100.964 36.4786 100.964 30.1068C100.964 23.735 95.8067 18.5697 89.4448 18.5697C83.083 18.5697 77.9258 23.735 77.9258 30.1068C77.9258 36.4786 83.083 41.6439 89.4448 41.6439Z" fill="black"/>
<path d="M120.285 69.7742C119.688 73.3594 119.551 76.9906 119.872 80.5758" stroke="black" stroke-width="3" stroke-miterlimit="10" stroke-linecap="round"/>
<path d="M81.2303 67.1542C83.9423 67.1542 86.1409 64.9522 86.1409 62.236C86.1409 59.5197 83.9423 57.3177 81.2303 57.3177C78.5183 57.3177 76.3198 59.5197 76.3198 62.236C76.3198 64.9522 78.5183 67.1542 81.2303 67.1542Z" fill="white"/>
<path d="M80.4038 62.236H82.1018" stroke="black" stroke-width="3" stroke-miterlimit="10" stroke-linecap="round"/>
<path d="M134.833 154.027C134.833 154.027 134.466 155.82 134.879 161.427C135.521 170.069 146.811 176.09 146.49 186.846C146.077 201.922 136.164 202.244 136.164 220.492" fill="#03A9F4"/>
<path d="M134.833 154.027C134.833 154.027 134.466 155.82 134.879 161.427C135.521 170.069 146.811 176.09 146.49 186.846C146.077 201.922 136.164 202.244 136.164 220.492" stroke="black" stroke-width="3" stroke-miterlimit="10"/>
<path d="M184.994 173.516H156.173C154.154 173.516 152.501 171.861 152.501 169.839V113.808C152.501 111.786 154.154 110.131 156.173 110.131H184.994C187.013 110.131 188.665 111.786 188.665 113.808V169.839C188.665 171.861 187.059 173.516 184.994 173.516Z" fill="white" stroke="black" stroke-width="3" stroke-miterlimit="10" stroke-linecap="round" stroke-linejoin="round"/>
<path d="M136.577 216.631C136.577 216.631 147.316 215.344 157.687 226.559C168.013 237.775 185.223 234.327 192.566 224.813C201.423 213.367 200.368 193.786 202.479 177.377C205.049 157.107 197.293 145.891 202.066 128.241C205.094 116.888 195.503 119.738 191.327 127.368C186.6 136.009 190.914 146.765 187.013 145.891C180.634 144.467 146.122 136.836 145.25 141.157C144.287 145.983 163.286 151.223 165.489 151.913C168.059 152.786 178.66 157.061 179.257 154.946C180.129 151.913 169.344 152.786 165.489 152.786C161.634 152.786 142.313 152.372 142.68 156.647C143.093 161.841 160.349 163.542 163.332 163.956C166.866 164.461 178.844 167.403 179.257 165.243C179.853 162.301 171.96 164.369 168.059 164.829C164.204 165.243 144.378 165.702 144.837 170.437C145.25 175.171 169.803 174.895 175.035 175.631C174.622 176.09 173.933 176.228 173.245 176.458C168.334 177.975 156.448 180.779 155.76 183.169C153.832 189.925 178.982 187.03 182.286 186.386" fill="white"/>
<path d="M77.8339 203.209C77.8339 203.209 67.2786 193.649 66.4525 190.063C65.6264 186.478 80.0827 195.119 82.0101 196.958" fill="#03A9F4"/>
<path d="M77.8339 203.209C77.8339 203.209 67.2786 193.649 66.4525 190.063C65.6264 186.478 80.0827 195.119 82.0101 196.958" stroke="black" stroke-width="3" stroke-miterlimit="10"/>
<path d="M87.5174 189.925C87.5174 189.925 72.281 173.608 66.6362 173.516C60.9914 173.378 77.6505 193.832 77.6505 193.832" fill="#03A9F4"/>
<path d="M87.5174 189.925C87.5174 189.925 72.281 173.608 66.6362 173.516C60.9914 173.378 77.6505 193.832 77.6505 193.832" stroke="black" stroke-width="3" stroke-miterlimit="10"/>
<path d="M79.3486 181.698C79.3486 181.698 68.6097 161.427 75.0347 164.001C81.5055 166.575 94.8144 185.972 94.8144 185.972" fill="#03A9F4"/>
<path d="M79.3486 181.698C79.3486 181.698 68.6097 161.427 75.0347 164.001C81.5055 166.575 94.8144 185.972 94.8144 185.972" stroke="black" stroke-width="3" stroke-miterlimit="10"/>
<path d="M165.81 85.54C165.81 85.54 161.267 86.4593 161.405 91.6073C161.542 86.4593 156.861 85.54 156.861 85.54C156.861 85.54 161.542 84.6207 161.405 79.4727C161.221 84.6207 165.81 85.54 165.81 85.54Z" fill="#FF9100" stroke="black" stroke-width="3" stroke-miterlimit="10" stroke-linecap="round" stroke-linejoin="round"/>
<path d="M179.119 74.5085C179.119 74.5085 174.576 75.4278 174.714 80.5758C174.851 75.4278 170.17 74.5085 170.17 74.5085C170.17 74.5085 174.851 73.5892 174.714 68.4412C174.53 73.5892 179.119 74.5085 179.119 74.5085Z" fill="#FF9100" stroke="black" stroke-width="3" stroke-miterlimit="10" stroke-linecap="round" stroke-linejoin="round"/>
<path d="M181.414 96.5715C181.414 96.5715 176.871 97.4908 177.008 102.639C177.146 97.4908 172.465 96.5715 172.465 96.5715C172.465 96.5715 177.146 95.6522 177.008 90.5042C176.825 95.6522 181.414 96.5715 181.414 96.5715Z" fill="#FF9100" stroke="black" stroke-width="3" stroke-miterlimit="10" stroke-linecap="round" stroke-linejoin="round"/>
<path d="M172.694 186.892C172.694 186.892 168.931 193.005 171.317 201.141C174.989 213.551 189.675 210.793 193.805 208.495C197.935 206.197 199.909 202.933 199.909 202.933C199.909 202.933 198.073 218.745 192.749 224.399C187.38 230.099 179.119 235.155 172.235 233.776C165.351 232.397 160.762 231.018 154.796 224.123C148.83 217.228 136.439 216.309 136.439 216.309L172.694 186.892Z" fill="#03A9F4"/>
<path d="M136.577 216.631C136.577 216.631 147.316 215.344 157.687 226.559C168.013 237.775 185.223 234.327 192.566 224.813C201.423 213.367 200.368 193.786 202.479 177.377C205.049 157.107 197.293 145.891 202.066 128.241C205.094 116.888 195.503 119.738 191.327 127.368C186.6 136.009 190.914 146.765 187.013 145.891C180.634 144.467 146.122 136.836 145.25 141.157C144.287 145.983 163.286 151.223 165.489 151.913C168.059 152.786 178.66 157.061 179.257 154.946C180.129 151.913 169.344 152.786 165.489 152.786C161.634 152.786 142.313 152.372 142.68 156.647C143.093 161.841 160.349 163.542 163.332 163.956C166.866 164.461 178.844 167.403 179.257 165.243C179.853 162.301 171.96 164.369 168.059 164.829C164.204 165.243 144.378 165.702 144.837 170.436C145.25 175.171 169.803 174.895 175.035 175.631C174.622 176.09 173.933 176.228 173.245 176.458C168.334 177.975 156.448 180.779 155.76 183.169C153.832 189.925 178.982 187.03 182.286 186.386" stroke="black" stroke-width="3" stroke-miterlimit="10" stroke-linecap="round" stroke-linejoin="round"/>
<path d="M58.4214 200.405C58.4214 200.405 54.291 201.6 54.291 212.172C54.291 222.744 61.7256 235.614 61.7256 235.614L107.94 223.571C107.94 223.571 112.896 221.319 113.676 213.092C114.456 204.864 112.116 200.727 113.034 197.05C113.952 193.373 116.705 186.478 116.246 183.261C115.787 180.043 113.584 178.067 112.391 178.572C111.198 179.124 107.71 182.893 106.471 186.064C105.232 189.236 103.35 193.465 103.35 193.465C103.35 193.465 101.928 186.892 99.6789 184.64C97.4302 182.387 96.1452 177.837 95.4109 172.964C94.6766 168.092 95.4109 160.186 92.9786 158.853C90.5463 157.52 89.6284 159.819 89.1695 160.738C88.7105 161.657 86.8748 174.527 86.8748 174.527C86.8748 174.527 79.3025 166.713 77.375 165.564C75.4476 164.415 72.6481 162.714 73.107 165.196C73.566 167.679 78.66 181.146 78.66 181.146L70.7206 175.125L65.8101 173.194L65.3512 175.952L75.3558 191.166L75.9065 192.499C75.9065 192.499 68.9308 189.558 68.2883 189.42C67.6458 189.282 66.269 189.282 66.269 189.282L68.5636 194.338L73.2447 198.843L58.4214 200.405Z" fill="white"/>
<path d="M23.8185 138.997C23.8185 138.997 20.3765 144.604 19.0916 160.554C17.9901 174.206 12.2076 232.121 15.6496 239.016C19.0916 245.91 79.7617 231.248 85.8195 229.961C91.8774 228.674 102.203 225.272 106.058 223.939C118.541 219.619 111.657 202.796 113.814 195.487C115.971 188.179 118.541 180.824 113.814 178.25C109.087 175.676 105.645 189.879 100.459 198.934C95.2734 207.99 102.616 211.851 104.314 202.382C106.058 192.913 97.4304 180.824 97.4304 180.824C94.4015 175.217 95.2734 167.908 94.4015 161.841C93.5295 155.82 88.3895 154.533 87.1045 170.482" stroke="black" stroke-width="3" stroke-miterlimit="10" stroke-linecap="round" stroke-linejoin="round"/>
<path d="M77.8339 202.749C77.8339 202.749 67.2786 193.189 66.4525 189.604C65.6264 186.018 80.0827 194.66 82.0101 196.498" stroke="black" stroke-width="3" stroke-miterlimit="10" stroke-linecap="round" stroke-linejoin="round"/>
<path d="M87.5174 189.466C87.5174 189.466 72.281 173.148 66.6362 173.056C60.9914 172.919 77.6505 193.373 77.6505 193.373" stroke="black" stroke-width="3" stroke-miterlimit="10" stroke-linecap="round" stroke-linejoin="round"/>
<path d="M79.3486 181.238C79.3486 181.238 68.6097 160.968 75.0347 163.542C81.5055 166.116 94.8144 185.513 94.8144 185.513" stroke="black" stroke-width="3" stroke-miterlimit="10" stroke-linecap="round" stroke-linejoin="round"/>
<path d="M40.2019 173.102C40.2019 173.102 44.4241 201.509 42.3589 208.449C39.7889 217.09 28.5911 217.504 31.62 209.736C35.1996 200.543 48.4167 201.554 61.3126 200.267" fill="#03A9F4"/>
<path d="M40.2019 173.102C40.2019 173.102 44.4241 201.509 42.3589 208.449C39.7889 217.09 28.5911 217.504 31.62 209.736C35.1996 200.543 48.4167 201.554 61.3126 200.267" stroke="black" stroke-width="3" stroke-miterlimit="10" stroke-linecap="round"/>
</g>
<defs>
<clipPath id="clip0">
<rect width="219" height="254" fill="white"/>
</clipPath>
</defs>
</svg>
